<?xml version="1.0" encoding="UTF-8" standalone="no"?>
<svg xmlns="http://www.w3.org/2000/svg"
     viewBox="0 0 612 612">
  <path id="Zub"
        fill="white"
        d="M 48.69,246.84
           C 48.69,246.84 -11.69,175.70 14.48,85.22
             18.75,75.13 23.70,50.70 60.29,23.91
             97.16,0.40 132.35,6.16 152.76,14.93
             173.11,26.81 192.19,39.98 192.19,39.98
             203.26,45.66 201.31,48.59 230.84,51.02
             268.96,50.70 295.73,6.37 345.37,6.54
             387.22,6.86 454.71,34.62 454.87,128.46
             454.28,152.71 450.94,187.53 428.41,227.94
             407.22,260.75 397.85,290.66 395.17,338.21
             393.23,387.51 394.50,451.83 382.90,498.71
             376.44,526.17 360.19,540.05 340.15,543.87
             283.64,554.07 268.70,459.42 253.41,415.00
             243.94,386.65 224.75,322.14 170.10,319.01
             234.12,311.87 266.47,398.48 269.59,405.63
             278.29,420.14 307.96,522.37 336.88,514.41
             370.79,505.78 371.31,373.04 375.20,337.10
             377.67,304.63 386.03,257.40 404.10,228.83
             418.82,200.93 423.34,171.84 424.22,144.21
             420.65,40.95 341.47,34.05 340.67,35.28
             291.67,33.49 284.21,79.59 229.71,80.40
             203.10,80.89 188.82,72.94 177.47,67.77
             177.47,67.77 139.10,39.98 119.17,34.62
             119.17,34.62 93.19,29.35 74.94,41.93
             55.80,54.76 55.69,53.52 39.77,75.70
             14.86,110.35 22.58,165.86 26.08,184.34
             32.63,218.86 48.69,246.84 48.69,246.84 Z
           M 124.38,515.01
           C 106.09,515.68 96.72,480.63 89.13,424.82
             87.05,412.05 82.44,365.22 77.31,308.52
             71.96,258.07 64.65,217.16 49.21,189.77
             55.36,212.71 61.70,228.16 62.37,291.78
             62.37,368.57 63.60,436.32 64.60,452.50
             68.17,518.58 87.35,545.81 122.15,544.92
             155.16,544.47 175.01,519.47 183.71,476.61
             193.75,430.40 200.22,390.67 225.87,384.87
             196.87,383.30 180.59,421.03 163.64,468.35
             150.03,502.73 138.21,514.11 124.38,515.01 Z" />
</svg>
